<svg id="visual" viewBox="0 0 900 600" width="900" height="600" xmlns="http://www.w3.org/2000/svg" xmlns:xlink="http://www.w3.org/1999/xlink" version="1.1"><rect x="0" y="0" width="900" height="600" fill="#002b33"></rect><path d="M350 0L372.5 25C395 50 440 100 457.5 150C475 200 465 250 444 300C423 350 391 400 413.5 450C436 500 513 550 551.5 575L590 600L0 600L0 575C0 550 0 500 0 450C0 400 0 350 0 300C0 250 0 200 0 150C0 100 0 50 0 25L0 0Z" fill="#009473" stroke-linecap="round" stroke-linejoin="miter"></path></svg>